<svg xmlns="http://www.w3.org/2000/svg" viewBox="0 0 40 40"><defs><style>.a{fill:#005699}</style></defs><path class="a" d="M34.7 27.5l-1-1.1A14.5 14.5 0 0 0 37.8 16a14.5 14.5 0 0 0-4.3-10.4l1.1-1.1a16.3 16.3 0 0 1 0 23z"/><path class="a" d="M32.5 25.5l-1.2-1.1a11.3 11.3 0 0 0 3.4-8.1A11.4 11.4 0 0 0 31.3 8l.1-.1 1-1a13 13 0 0 1 0 18.5zM6.1 4.5l1.1 1.1A14.5 14.5 0 0 0 3 16a14.5 14.5 0 0 0 4.3 10.4l-1.1 1.1a16.3 16.3 0 0 1 0-23z"/><path class="a" d="M8.4 6.5l1 1.1a11.3 11.3 0 0 0-3.2 8.1A11.4 11.4 0 0 0 9.5 24v.1l-1 1a13 13 0 0 1-.1-18.5z"/><path d="M20.5 4.5c-4 0-7 4-7 4a12.1 12.1 0 0 0-1 5v11.3a3.2 3.2 0 0 1-.3 1.4l-2 4a1 1 0 0 0 .8 1.3h19.7a1 1 0 0 0 .8-1.5L29 26.3a3.2 3.2 0 0 1-.5-1.8v-11a13.4 13.4 0 0 0-1-5c-.4-1-4-4-7-4z" fill="none" stroke="#606161" stroke-miterlimit="10" stroke-width="2"/><path d="M24.5 31.5a4 4 0 0 1-8 0" fill="#606161"/></svg>